<svg version="1.1" xmlns="http://www.w3.org/2000/svg" xmlns:xlink="http://www.w3.org/1999/xlink" width="261.43586" height="261.43586" viewBox="0,261.43586,261.43586"><g data-paper-data="{&quot;isPaintingLayer&quot;:true}" fill-rule="nonzero" stroke-linejoin="miter" stroke-miterlimit="10" stroke-dasharray="" stroke-dashoffset="0" style="mix-blend-mode: normal"><path d="M129.11986,43.3953v-30.64535h3.19614v30.64535zM120.60357,70.84814v-30.64535l1.85166,-2.42006v33.06541zM140.83229,70.84814v-30.64535l-1.85166,-2.42006v33.06541z" fill="#2a2003" stroke="#9e7a0a" stroke-width="1.5" stroke-linecap="butt"/><path d="M14.79805,203.34904l5.19331,-42.98903l88.86324,-74.72591l-3.32393,21.11412l-69.07731,60.24959l-8.69982,23.00259l31.55207,9.80367l11.31143,-14.95575l24.76429,-0.20993l-1.00587,18.98738l-11.73738,0.56586l-12.44475,15.60288zM246.63781,203.34904l-5.19331,-42.98903l-88.86324,-74.72591l3.32393,21.11412l69.07731,60.24959l8.69982,23.00259l-31.55207,9.80367l-11.31143,-14.95575l-24.76429,-0.20993l1.00587,18.98738l11.73738,0.56586l12.44475,15.60288z" fill="#2a2003" stroke="none" stroke-width="0" stroke-linecap="butt"/><path d="M28.06695,190.93993l8.94403,-24.23543l68.37853,-61.16561l-2.2645,79.36735l-32.17135,-0.04336l-10.47001,15.86066zM233.36890,190.93993l-8.94403,-24.23543l-68.37853,-61.16561l2.2645,79.36735l32.17135,-0.04336l10.47001,15.86066z" fill="#000000" stroke="none"/><path d="M63.65264,164.49446v-40.6809l20.77322,-16.73399l-0.28852,51.64455l7.84727,5.6656l20.3328,42.15762l-5.71123,-2.97854l-16.80083,-0.43126l0.20513,-11.25994zM3.25737,199.3098l15.00288,-37.50721l3.75072,-2.88517v31.15984l23.13867,22.11108zM197.78321,164.49446v-40.6809l-20.77322,-16.73399l0.28852,51.64455l-7.84727,5.6656l-20.3328,42.15762l5.71123,-2.97854l16.80083,-0.43126l-0.20513,-11.25994zM258.17849,199.3098l-15.00288,-37.50721l-3.75072,-2.88517v31.15984l-23.13867,22.11108z" fill="#dca90d" stroke="#9e7a0a" stroke-width="2.5" stroke-linecap="butt"/><path d="M27.9717,190.84472l8.94403,-24.23543l68.37853,-61.16561M27.9717,190.84472l8.94403,-24.23543l68.37853,-61.16561l-2.2645,79.36735l-32.17135,-0.04336l-10.47001,15.86066zM233.46416,190.84472l-8.94403,-24.23543l-68.37853,-61.16561M233.46416,190.84472l-8.94403,-24.23543l-68.37853,-61.16561l2.2645,79.36735l32.17135,-0.04336l10.47001,15.86066z" fill="none" stroke="#9e7a0a" stroke-width="2.5" stroke-linecap="butt"/><path d="M130.71793,214.84393L106.7595,203.48415l-23.73276,0.00647l-12.7323,16.45898l-67.22999,-20.58753l16.32439,-37.70065l99.07545,-84.1421M130.71793,214.84393L154.67636,203.48415l23.73276,0.00647l12.7323,16.45898l67.22999,-20.58753l-16.32439,-37.70065l-99.07545,-84.1421" fill="none" stroke="#9e7a0a" stroke-width="4.5" stroke-linecap="round"/><path d="M130.71793,170.99755L134.62415,170.99755l-43.29657,-8.18476l23.52532,-100.28682l15.59254,-20.43912H130.71793M130.71793,170.99755L126.81171,170.99755l43.29657,-8.18476l-23.52532,-100.28682l-15.59254,-20.43912H130.71793" fill="#000000" stroke="#9e7a0a" stroke-width="4.5" stroke-linecap="round" stroke-linejoin="round"/><path d="M130.71793,213.48402L110.5572,205.01349l-19.84304,-41.85579l29.54902,-20.0818l7.10126,-34.57867l3.07372,-2.8715H130.71793M130.71793,213.48402L150.87866,205.01349l19.84304,-41.85579l-29.54902,-20.0818l-7.10126,-34.57867l-3.07372,-2.8715H130.71793" fill="#291f03" stroke="#9e7a0a" stroke-width="2.5" stroke-linecap="round"/><path d="M121.15704,165.10154v-11.38216h19.55809v11.38216zM122.56084,231.75238l-4.24005,-0.10002l0.06124,-7.0274l4.0185,-0.08663M122.59116,238.19519l-4.24005,-0.04223l0.06124,-2.96712l4.0185,-0.03658M128.71335,238.54613l-0.02328,9.44222l-4.21677,-0.02603l0.06124,-9.37961M122.50018,209.86505l-4.24005,-0.12858l0.06124,-9.03393l4.0185,-0.11137M122.53051,196.9343l-4.24005,-0.11558l0.06124,-11.32679l4.0185,-0.10011M122.57755,220.25651l-4.24005,-0.11883l0.06124,-8.34889l4.0185,-0.10293M138.87502,231.75238l4.24005,-0.10002l-0.06124,-7.0274l-4.0185,-0.08663M138.8447,238.19519l4.24005,-0.04223l-0.06124,-2.96712l-4.0185,-0.03658M132.72251,238.54613l0.02328,9.44222l4.21677,-0.02603l-0.06124,-9.37961M138.93567,209.86505l4.24005,-0.12858l-0.06124,-9.03393l-4.0185,-0.11137M138.90535,196.9343l4.24005,-0.11558l-0.06124,-11.32679l-4.0185,-0.10011M138.8583,220.25651l4.24005,-0.11883l-0.06124,-8.34889l-4.0185,-0.10293" fill="#000000" stroke="#9e7a0a" stroke-width="2" stroke-linecap="round"/><path d="M130.71793,82.27178l-3.80582,-2.68117l-5.03302,-18.15963l8.81476,-11.71092L130.71793,49.72l8.81476,11.710923l-5.03302,18.15963zM103.26451,142.81815l15.55028,-71.65954l2.565,8.17593l-10.5806,57.71238zM158.17134,142.81815l-15.55028,-71.65954l-2.565,8.17593l10.5806,57.71238z" fill="#000000" stroke="#9e7a0a" stroke-width="2.5" stroke-linecap="butt"/><path d="M117.79048,155.00187v-3.84749h25.97057v3.84749zM118.43174,159.00967l25.32932,-0.16031M116.92470,185.14056v-21.32152H144.51116v21.32152L137.93836,185.14056v54.18552L130.71793,241.457748l-7.22043,-2.131669v-54.18552z" fill="#000000" stroke="#9e7a0a" stroke-width="2" stroke-linecap="round"/></g></svg>